<?xml version="1.0" standalone="no"?>
<!DOCTYPE svg PUBLIC "-//W3C//DTD SVG 20010904//EN"
 "http://www.w3.org/TR/2001/REC-SVG-20010904/DTD/svg10.dtd">
<svg version="1.0" xmlns="http://www.w3.org/2000/svg"
 width="1212.000000pt" height="1280.000000pt" viewBox="0 0 1212.000000 1280.000000"
 preserveAspectRatio="xMidYMid meet">
<metadata>
Created by potrace 1.15, written by Peter Selinger 2001-2017
</metadata>
<g transform="translate(0.000000,1280.000000) scale(0.100000,-0.100000)"
fill="#000000" stroke="none">
<path d="M891 12755 c-1 -16 -19 -176 -41 -355 -128 -1036 -279 -2040 -411
-2735 -82 -432 -81 -411 -35 -456 l25 -25 -9 -274 c-5 -151 -14 -414 -20 -585
-5 -170 -10 -336 -10 -367 l0 -58 489 0 489 0 6 113 c3 61 13 348 22 636 14
482 17 527 34 548 10 13 21 36 25 51 3 16 -16 138 -44 287 -95 498 -202 1133
-305 1805 -65 426 -179 1218 -192 1340 -8 78 -22 123 -23 75z"/>
<path d="M11210 12708 c0 -40 -65 -568 -121 -983 -114 -851 -240 -1643 -360
-2259 -22 -115 -38 -220 -35 -232 3 -12 18 -36 32 -53 l25 -31 -11 -337 c-6
-186 -15 -466 -20 -623 -6 -157 -10 -293 -10 -302 0 -17 30 -18 490 -18 l490
0 4 23 c3 12 12 298 22 636 l17 615 24 34 c12 19 23 47 23 62 0 15 -22 144
-49 286 -150 784 -403 2385 -492 3112 -12 98 -29 138 -29 70z"/>
<path d="M8902 12047 c-111 -1006 -280 -2212 -406 -2895 -26 -141 -25 -165 14
-207 17 -19 17 -35 9 -260 -4 -132 -8 -307 -9 -390 -1 -135 -2 -148 -16 -130
-8 11 -49 72 -90 135 -219 333 -512 619 -857 836 -214 135 -532 276 -759 335
l-88 23 0 128 c0 124 1 128 22 128 21 0 21 1 15 153 -15 356 -135 666 -336
865 -57 56 -167 133 -209 146 -29 9 -68 87 -161 321 -40 99 -74 181 -75 183
-2 1 -22 -50 -44 -115 -22 -65 -64 -173 -92 -240 l-52 -123 -80 -42 c-306
-159 -518 -594 -518 -1064 0 -88 1 -94 20 -94 20 0 20 -5 18 -141 l-3 -141
-120 -42 c-157 -55 -243 -93 -395 -172 -451 -236 -856 -617 -1111 -1047 -29
-48 -54 -85 -57 -83 -2 3 1 181 7 396 11 366 13 393 33 426 26 45 26 45 -56
524 -122 717 -279 1803 -395 2735 -10 83 -21 143 -23 135 -3 -8 -18 -127 -32
-265 -99 -922 -270 -2154 -395 -2849 -38 -207 -39 -235 -7 -273 l25 -30 -9
-294 c-5 -162 -12 -415 -15 -564 -3 -148 -8 -291 -11 -317 l-5 -48 346 0 c223
0 345 -4 345 -10 0 -7 -167 -10 -481 -10 -325 0 -487 -3 -501 -11 -43 -23 -48
-62 -48 -344 0 -282 5 -321 48 -344 12 -6 80 -11 161 -11 l141 0 0 -175 0
-175 -263 0 c-263 0 -264 0 -285 -23 l-22 -23 0 -817 0 -817 -261 0 c-290 0
-321 -5 -377 -57 -19 -18 -36 -32 -37 -31 -2 3 12 2291 14 2296 0 1 71 2 156
2 l155 0 32 29 33 29 0 312 0 312 -33 29 -32 29 -833 0 c-773 0 -834 -2 -853
-18 -12 -9 -27 -27 -33 -39 -15 -30 -15 -596 0 -626 27 -53 42 -57 222 -57
l169 0 -6 -822 c-4 -453 -11 -1586 -16 -2518 -5 -932 -12 -2150 -16 -2706 l-7
-1011 183 -6 c101 -4 331 -7 512 -7 l328 0 0 57 0 56 23 -44 c16 -29 40 -54
72 -74 l48 -30 1554 -3 c1365 -2 1553 -4 1553 -17 0 -12 18 -15 100 -15 82 0
100 3 100 15 0 13 132 15 1130 15 747 0 1130 -3 1130 -10 0 -6 40 -10 100 -10
60 0 100 4 100 10 0 7 543 10 1608 10 1798 0 1678 -5 1746 70 l36 40 0 -45 0
-45 188 0 c103 0 331 -3 508 -7 l321 -6 7 1009 c3 555 11 1830 16 2834 6 1004
13 2141 16 2528 l6 702 155 0 155 0 34 34 34 34 0 299 c0 328 -2 336 -60 365
-32 17 -93 18 -838 18 -682 0 -808 -2 -838 -15 -60 -25 -64 -47 -64 -362 0
-385 -8 -373 243 -373 l158 0 -7 -1492 c-3 -821 -8 -1495 -10 -1497 -2 -2 -4
142 -4 320 l0 325 -26 52 c-19 39 -38 59 -72 80 l-47 27 -302 3 -303 3 -2 819
c-3 771 -4 820 -21 837 -16 16 -45 19 -275 23 l-257 5 -3 178 -2 177 135 0
c75 0 145 5 156 10 45 25 49 52 49 345 0 293 -4 320 -49 345 -13 6 -186 10
-490 10 -335 0 -472 3 -477 11 -5 8 80 10 317 8 l324 -4 17 605 c16 584 17
606 39 648 26 53 29 21 -50 482 -128 752 -335 2188 -402 2795 -7 61 -15 113
-18 117 -4 4 -21 -129 -39 -295z m-402 -5422 c0 -13 -282 -15 -2474 -15 -1631
0 -2477 3 -2481 10 -6 10 475 13 3463 18 1321 2 1492 0 1492 -13z"/>
</g>
</svg>
